<svg xmlns="http://www.w3.org/2000/svg" width="256" height="256" viewBox="0 0 256 256"><defs><linearGradient id="g" x2="1" y2="1"><stop stop-color="#75e7ce"/><stop offset="1" stop-color="#f7c878"/></linearGradient></defs><g fill="none" stroke="url(#g)" stroke-width="5" stroke-linecap="round" stroke-linejoin="round"><path d="M73 190a87 87 0 1 1 110 0"/><path d="M69 199h118M82 214h92M107 190l8-72h26l8 72M109 118h38V96h-38zM103 96l25-19 25 19M128 77V65M119 107h18M128 142v16M107 105L78 96M149 105l29-9"/></g><path d="M119 100h18v11h-18z" fill="#f7c878"/><circle cx="194" cy="53" r="6" fill="#75e7ce"/></svg>